<svg id="svg" xmlns="http://www.w3.org/2000/svg" xmlns:xlink="http://www.w3.org/1999/xlink" width="400" height="107.86516853932584" viewBox="0, 0, 400,107.86516853932584"><g id="svgg"><path id="path0" d="M0.000 53.034 L 0.000 106.067 6.742 106.067 L 13.483 106.067 13.483 80.899 L 13.483 55.730 37.753 55.730 L 62.022 55.730 62.022 50.337 L 62.022 44.944 37.753 44.944 L 13.483 44.944 13.483 27.865 L 13.483 10.787 39.101 10.787 L 64.719 10.787 64.719 5.393 L 64.719 0.000 32.360 0.000 L 0.000 0.000 0.000 53.034 M161.798 21.573 L 161.798 32.360 156.404 32.360 L 151.011 32.360 151.011 37.753 L 151.011 43.146 156.404 43.146 L 161.798 43.146 161.820 65.843 C 161.849 95.956,163.286 101.347,172.356 105.359 C 176.964 107.397,194.096 107.387,196.139 105.345 C 198.086 103.398,195.307 94.125,192.952 94.712 C 175.735 99.000,174.382 96.916,174.382 66.112 L 174.382 43.146 182.022 43.146 L 189.663 43.146 189.663 37.753 L 189.663 32.360 182.022 32.360 L 174.382 32.360 174.382 21.573 L 174.382 10.787 168.090 10.787 L 161.798 10.787 161.798 21.573 M356.854 24.161 C 325.969 34.280,322.798 90.857,352.300 105.393 C 380.362 119.218,407.557 86.182,397.818 50.097 C 392.498 30.383,373.867 18.587,356.854 24.161 M303.165 26.153 C 301.074 27.188,298.142 29.426,296.648 31.127 L 293.933 34.220 293.933 30.144 L 293.933 26.067 288.090 26.067 L 282.247 26.067 282.247 66.067 L 282.247 106.067 288.012 106.067 L 293.777 106.067 294.105 78.427 C 294.391 54.390,294.641 50.318,296.026 47.191 C 300.271 37.610,309.501 33.546,317.618 37.684 L 321.009 39.413 324.100 34.581 C 328.012 28.466,327.984 28.137,323.371 26.043 C 317.966 23.590,308.236 23.643,303.165 26.153 M75.675 55.955 L 75.955 85.843 78.293 90.828 C 86.562 108.456,111.260 114.278,125.024 101.843 L 128.425 98.771 128.707 102.194 L 128.989 105.618 135.056 105.884 L 141.124 106.150 141.124 66.108 L 141.124 26.067 134.831 26.067 L 128.539 26.067 128.539 50.742 C 128.539 65.186,128.132 77.315,127.558 79.994 C 123.647 98.228,99.156 101.877,90.602 85.501 L 88.090 80.694 88.090 53.381 L 88.090 26.067 81.743 26.067 L 75.396 26.067 75.675 55.955 M203.162 51.910 C 203.182 85.934,204.125 90.639,212.777 99.888 C 222.185 109.946,243.554 111.052,252.911 101.965 C 256.909 98.081,257.079 98.102,257.079 102.472 L 257.079 106.067 262.921 106.067 L 268.764 106.067 268.764 66.067 L 268.764 26.067 262.472 26.067 L 256.180 26.067 256.175 52.360 C 256.169 82.635,255.931 84.091,250.011 90.011 C 241.888 98.134,230.218 98.320,222.350 90.451 C 216.257 84.359,215.730 81.259,215.730 51.522 L 215.730 26.067 209.438 26.067 L 203.146 26.067 203.162 51.910 M373.287 36.297 C 389.233 43.139,392.224 78.458,377.970 91.597 C 361.153 107.097,341.181 87.134,345.127 58.768 C 347.692 40.324,359.925 30.564,373.287 36.297 " stroke="none" fill="#000000" fill-rule="evenodd"></path></g></svg>